<svg width="40" height="40" viewBox="0 0 40 40" fill="none" xmlns="http://www.w3.org/2000/svg">
<g clip-path="url(#clip0_298_1704)">
<path d="M9.39335 30.6065C10.0442 31.2574 11.0995 31.2574 11.7504 30.6065L30.6066 11.7503C31.2574 11.0994 31.2574 10.0442 30.6066 9.39329C29.9557 8.74241 28.9004 8.74241 28.2495 9.39329L9.39335 28.2495C8.74248 28.9003 8.74248 29.9556 9.39335 30.6065Z" fill="#FCFCFD"/>
<path d="M9.39327 9.39335C8.74239 10.0442 8.74239 11.0995 9.39327 11.7504L28.2494 30.6066C28.9003 31.2574 29.9556 31.2574 30.6065 30.6066C31.2573 29.9557 31.2573 28.9004 30.6065 28.2495L11.7503 9.39335C11.0994 8.74248 10.0441 8.74248 9.39327 9.39335Z" fill="#FCFCFD"/>
</g>
<defs>
<clipPath id="clip0_298_1704">
<rect width="40" height="40" fill="white"/>
</clipPath>
</defs>
</svg>
